HIERARCHY
ROOT hip
{
	OFFSET 0.000000 0.000000 0.000000 
	CHANNELS 6 Xposition Yposition Zposition Xrotation Zrotation Yrotation
	JOINT abdomen
	{
		OFFSET 0.000000 3.402643 0.000000 
		CHANNELS 3 Xrotation Zrotation Yrotation
		JOINT chest
		{
			OFFSET 0.000000 8.438565 -0.680529 
			CHANNELS 3 Xrotation Zrotation Yrotation
			JOINT neck
			{
				OFFSET 0.000000 10.207942 -0.272212 
				CHANNELS 3 Xrotation Zrotation Yrotation
				JOINT head
				{
					OFFSET 0.000000 3.130431 0.000000 
					CHANNELS 3 Xrotation Zrotation Yrotation
					End Site
					{
						OFFSET 0.000000 3.130435 0.000000 
					}
				}
			}
			JOINT lCollar
			{
				OFFSET 3.470700 6.669187 -0.816635 
				CHANNELS 3 Yrotation Zrotation Xrotation
				JOINT lShldr
				{
					OFFSET 3.198488 0.000000 0.000000 
					CHANNELS 3 Zrotation Yrotation Xrotation
					JOINT lForeArm
					{
						OFFSET 10.139888 0.000000 0.000000 
						CHANNELS 3 Yrotation Zrotation Xrotation
						JOINT lHand
						{
							OFFSET 8.370511 0.000000 0.000000 
							CHANNELS 3 Zrotation Yrotation Xrotation
							End Site
							{
								OFFSET 4.083176 0.000000 0.000000 
							}
						}
					}
				}
			}
			JOINT rCollar
			{
				OFFSET -3.470700 6.669187 -0.816635 
				CHANNELS 3 Yrotation Zrotation Xrotation
				JOINT rShldr
				{
					OFFSET -3.198488 0.000000 0.000000 
					CHANNELS 3 Zrotation Yrotation Xrotation
					JOINT rForeArm
					{
						OFFSET -10.139888 0.000000 0.000000 
						CHANNELS 3 Yrotation Zrotation Xrotation
						JOINT rHand
						{
							OFFSET -8.370511 0.000000 0.000000 
							CHANNELS 3 Zrotation Yrotation Xrotation
							End Site
							{
								OFFSET -4.083176 0.000000 0.000000 
							}
						}
					}
				}
			}
		}
	}
	JOINT lThigh
	{
		OFFSET 5.308129 -1.633274 1.361059 
		CHANNELS 3 Xrotation Zrotation Yrotation
		JOINT lShin
		{
			OFFSET -2.041588 -20.007561 0.000000 
			CHANNELS 3 Xrotation Zrotation Yrotation
			JOINT lFoot
			{
				OFFSET 0.000000 -19.190928 -1.224953 
				CHANNELS 3 Xrotation Yrotation Zrotation
				End Site
				{
					OFFSET 0.000000 -2.449906 4.627600 
				}
			}
		}
	}
	JOINT rThigh
	{
		OFFSET -5.308129 -1.633274 1.361059 
		CHANNELS 3 Xrotation Zrotation Yrotation
		JOINT rShin
		{
			OFFSET 2.041588 -20.007561 0.000000 
			CHANNELS 3 Xrotation Zrotation Yrotation
			JOINT rFoot
			{
				OFFSET 0.000000 -19.190928 -1.224953 
				CHANNELS 3 Xrotation Yrotation Zrotation
				End Site
				{
					OFFSET 0.000000 -2.449906 4.627600 
				}
			}
		}
	}
}
MOTION
Frames: 14
Frame Time: 0.033333
-3.432810 43.086998 60.574455 -7.031250 1.582031 -167.695038 19.326170 4.150391 -2.792969 -10.771485 0.371094 -3.251950 -14.599609 1.572266 -3.515625 22.666016 -4.921875 -4.580078 0.126953 7.822263 0.311171 -92.314453 -39.892582 69.446861 -52.871094 -3.388672 -45.664059 22.744141 0.625000 0.068359 8.261719 3.066406 -0.273960 67.343750 33.427734 11.880381 65.361328 3.105469 -30.645058 -11.630858 -11.972657 1.863209 -21.864323 4.374566 -9.502234 50.871941 -0.257980 -3.404367 -32.630768 5.911445 -3.368173 -41.791008 -13.006156 -3.358240 50.359974 -0.002358 2.866259 -9.104378 -1.307498 6.554167 
-3.616271 42.654270 61.370125 -6.689453 1.572266 -167.177475 21.083982 4.228516 -2.412109 -9.716796 0.712891 -3.222535 -17.050779 1.582031 -4.570043 21.445313 -5.107422 -5.292969 -0.410156 7.812500 0.390625 -93.027344 -44.306641 72.317390 -51.386715 -3.398438 -46.044346 24.306643 -1.386719 -0.683830 9.306642 3.779297 -0.254550 60.693363 36.386715 9.185483 65.302734 3.281250 -34.834541 -11.455077 -11.972655 1.872976 -27.344830 2.813497 -13.010019 58.261909 -0.019370 -3.810251 -29.954096 3.492653 -5.240089 -43.113815 -13.681304 -2.888138 51.588219 -0.185486 2.857523 -7.555358 -0.657573 6.619617 
-3.834498 42.126026 62.202488 -5.458984 1.572266 -167.695053 23.349609 4.091797 -1.903600 -8.300781 1.396484 -2.997809 -19.345701 1.572266 -4.921607 20.742188 -5.097656 -5.634766 -1.093750 7.988307 0.311142 -93.574219 -49.902344 72.421875 -49.121094 -3.447266 -46.904297 23.427734 -1.113281 -0.468937 10.361329 3.427734 -0.264256 53.369141 41.132813 6.285721 63.017578 3.359375 -40.234947 -11.044922 -11.484375 1.689453 -30.887568 1.396728 -16.014305 63.527233 0.165619 -3.780592 -29.379618 1.055968 -6.333165 -44.542210 -13.171582 -0.910528 52.833981 -0.029233 2.821978 -6.025024 -1.070700 6.796511 
-4.141388 41.661419 63.136036 -4.228463 1.757791 -170.155838 25.791016 3.613281 -1.483760 -6.708985 1.728516 -2.939453 -21.621094 2.988281 -4.745584 19.853514 -5.800781 -5.107422 -1.630859 9.042969 0.419922 -94.072266 -55.390625 64.093529 -45.380859 -3.457031 -46.689453 13.837891 3.320313 0.625567 11.240234 2.558594 -0.146484 47.070309 48.164063 4.570314 58.349609 3.437500 -44.346287 -12.773438 -9.824218 1.746382 -33.037807 1.271424 -16.481007 65.607826 0.701830 -3.939030 -27.178345 -1.280797 -7.873687 -45.154362 -11.083438 2.162208 52.263172 -0.349593 3.004303 -5.274333 -2.067085 6.558140 
-4.572309 41.447403 64.338936 175.781250 177.705078 4.746485 27.695313 2.412109 -1.083984 -5.468750 2.597656 -2.548828 -24.267576 4.912109 -3.348773 19.511719 -7.568360 -3.546208 -1.962891 10.097657 0.332031 -89.482422 -58.984379 54.033199 -47.421875 -3.496094 -46.698627 13.662109 3.671875 0.635393 11.425781 0.947266 -0.185547 42.080078 57.558590 2.195741 52.822266 3.535156 -46.123043 -14.072266 -9.882813 2.041015 -34.064034 4.043826 -14.326116 65.602844 0.526343 -4.211403 -26.599895 -3.318134 -8.821131 -46.122391 -7.216697 6.881825 49.482288 -0.339544 2.891932 -3.700875 -2.726950 6.458385 
-5.163712 41.599823 65.875793 173.847672 176.826172 -3.515085 28.759766 1.289062 -2.314453 -5.292969 2.763672 0.273438 -26.552732 7.373047 -1.053434 18.974609 -9.677734 -0.712891 -2.001953 10.791016 0.527344 -79.589844 -59.140629 43.828125 -54.990231 -3.349610 -44.374428 23.427732 -2.148437 -0.957031 10.537108 -1.367188 -0.097656 39.716797 66.318359 -1.289063 51.191402 3.457031 -45.039059 -13.105469 -9.462891 1.728516 -36.210247 8.593536 -7.055864 64.907448 0.599553 -3.932235 -26.067881 -2.457240 -8.416664 -48.648666 -2.139480 11.992460 43.300804 0.173095 2.997302 2.571717 -1.441942 6.926729 
-5.921373 41.934628 67.529457 -9.501953 3.867188 166.279297 28.730471 -0.175781 -1.621124 -5.292969 2.412109 1.152344 -27.783205 10.019532 1.757813 17.753906 -11.083985 2.771560 -2.519531 11.503907 0.488281 -67.275391 -57.041012 25.831652 -63.427731 -3.183594 -40.145939 23.798828 -3.349610 -1.474609 9.472656 -3.125000 0.000000 38.339844 74.042969 -5.029295 53.652344 3.466797 -43.945900 -11.738281 -7.832032 1.277966 -37.848732 14.159221 1.442313 63.702682 0.395497 -3.633146 -27.891888 0.344522 -7.011620 -51.521969 2.382805 11.615224 35.395679 0.832109 2.682081 14.278372 6.030349 5.357942 
-6.687694 42.217091 69.045372 -12.314453 4.394531 157.158951 28.017580 -0.615234 -1.377058 -4.775391 1.708984 1.337891 -28.125000 12.304688 5.129034 16.162111 -11.611329 6.667956 -2.695313 11.494141 0.527344 -53.974609 -54.179688 9.560547 -70.703125 -3.203125 -36.767582 24.072268 -5.468750 -2.295853 8.251954 -3.447266 0.147072 26.240234 80.097656 -16.435692 59.130859 3.437500 -44.365826 -11.083985 -5.996094 0.800781 -39.057121 19.918156 8.049454 62.265526 0.101852 -3.581862 -28.683058 2.477841 -6.157613 -53.824028 5.936912 4.155597 34.183792 0.920344 2.638272 16.171307 12.714627 3.388035 
-7.379549 42.353996 70.316971 -14.062500 4.394532 150.479263 27.158201 -0.722656 -2.314453 -4.101563 0.117188 0.312520 -27.597654 14.765624 8.127489 15.468749 -12.314453 10.156250 -1.474609 11.855470 0.456978 -45.351566 -51.259766 -2.285158 -75.927734 -2.949219 -28.574221 24.501953 -8.427733 -3.642578 6.484375 -2.753906 -0.038593 4.863281 84.882813 -38.984379 65.439453 3.339844 -42.647053 -10.830078 -3.603516 0.458372 -40.672405 23.270283 11.525594 62.265057 0.257913 -3.491627 -28.282598 4.656422 -4.442148 -53.317741 8.056147 -0.945932 39.812424 0.720394 2.514464 4.396831 7.733091 6.466133 
-7.986111 42.361938 71.284676 -14.599609 4.042969 146.064438 26.298828 -0.654297 -3.213002 -4.990234 -0.927734 -0.947266 -25.673828 15.996093 10.546876 15.117188 -13.017579 12.605223 -0.800781 12.734376 0.488281 -40.478516 -48.232422 -11.726034 -80.888672 -2.675781 -24.052904 21.220703 -9.687500 -3.515625 4.912109 -2.382813 0.029703 4.570313 86.191406 -41.054710 73.505859 3.349610 -43.154869 -11.484374 -1.367188 0.068126 -41.636738 24.381325 12.594946 62.828396 0.259309 -3.324563 -27.965599 7.566279 -3.238356 -51.527527 7.352694 -4.624992 51.058090 -0.042645 3.257432 -7.569429 -2.979564 6.547256 
-8.555861 42.306236 71.980972 -14.765624 3.339844 142.393143 24.902344 -0.341797 -3.671934 -6.748047 -0.732422 -1.708984 -22.148438 14.765624 13.049364 14.755858 -13.369141 14.228516 -0.976563 12.382813 0.527344 -39.609375 -45.283203 -16.015627 -85.283203 -2.441406 -17.011721 20.292971 -11.044923 -3.839761 3.330078 -2.910156 -0.009270 36.816406 84.726563 -11.396525 82.470703 3.427734 -43.720703 -12.714843 -0.664063 -0.000112 -41.221123 25.020130 15.205756 62.108200 0.425278 -3.387691 -28.916210 9.171859 -2.071875 -47.483788 4.530632 -6.378828 60.708778 -0.620153 3.553445 -13.572057 -12.064795 3.935998 
-9.039232 42.200851 72.506577 -14.423828 2.460938 138.691833 22.968750 0.166016 -3.535156 -7.968749 -0.185547 -2.109407 -19.169924 13.359374 15.292968 14.755858 -14.062500 15.644531 -0.117188 12.216798 0.507813 -40.107422 -44.218750 -18.356421 -89.589844 -2.060547 -9.091445 18.486326 -12.695312 -3.964844 2.285156 -2.724609 0.117188 46.191406 81.054688 -2.285157 91.884766 3.417969 -43.467377 -14.628908 1.015625 -0.458984 -40.737770 26.098246 17.746574 61.930103 0.414649 -3.714253 -29.034399 10.277748 -1.460270 -41.517021 0.166213 -6.370775 66.337708 -0.712912 3.230829 -16.346788 -16.339783 1.872660 
-9.388949 42.021366 72.943878 -13.720702 1.933594 134.814774 21.386719 0.673828 -3.388557 -8.662109 0.703125 -2.128787 -16.357424 12.294923 17.216799 15.107422 -15.292968 17.048203 0.927734 12.226562 0.458984 -40.048828 -43.291016 -20.026228 -95.976563 -1.806641 -6.689146 15.712892 -12.470703 -3.322420 1.923828 -2.031250 0.068706 49.921875 76.396484 1.591795 100.039063 3.535156 -42.500000 -15.722656 3.818359 -1.191406 -39.665878 27.653215 20.763226 62.626450 0.248087 -3.504935 -29.283039 10.629074 -0.987150 -33.875313 -4.755780 -6.039624 68.251091 -1.054706 3.258022 -16.629368 -18.426640 1.067246 
-9.655416 41.749599 73.373466 -12.490233 1.406250 130.947495 20.156250 1.132813 -3.085744 -9.873047 2.294922 -1.992188 -13.017578 10.195313 19.511719 15.468749 -16.533201 18.574219 1.601563 12.060492 0.476479 -39.042969 -42.001949 -19.072266 -102.597656 -1.728516 -4.306641 14.677733 -11.416016 -2.734375 1.748047 -1.679688 0.049114 52.138668 70.957031 4.511719 107.949219 3.408203 -41.455372 -17.441406 7.236329 -2.138672 -38.827663 29.452335 23.034420 64.392059 0.414673 -3.480080 -28.183617 10.616807 -1.318652 -25.872620 -10.836837 -5.334119 66.343224 -0.898397 2.931241 -14.927158 -19.001074 1.647288 
